<svg xmlns="http://www.w3.org/2000/svg" width="258.779" height="102.441" viewBox="0 0 218.779 102.441">
  <g id="Group_4" data-name="Group 4" transform="translate(-573.611 -46.559)">
    <g id="Group_2" data-name="Group 2" transform="translate(180.389 -218)">
      <g id="Group_1" data-name="Group 1" transform="translate(-20 -5)">
        <path id="tattoo-30095" d="M96.917,21.632c4.117-2.36,4.42-4.14,4.248-8.224C101,9.4,98.2,7.106,94.457,5.718s-8.106-.267-10.062,2.029c-2,2.35-1.845,4.806.112,6.515a1.637,1.637,0,0,0,2.8-1.068c-.077-1.471-3.242-1.121-.894-3.525C88,8.043,91.27,8.228,93,10.1s2.674,5.24.335,7.049C86.575,22.379,72.32,6.572,55.1,6.466,46.941,6.415,35.382,17.6,28.495,18.428c-.405.073-.806.137-1.4.219-.668.093-1.322.159-2.254.216-.208.014-.676.032-1.173.041s-.982,0-1.688-.025c-10.129-.4-15.954-7.256-16.288-7.074s6.31,7.438,17.374,8.5c.275.027.783.062,1.3.083a25.937,25.937,0,0,0,4.581-.255C35.832,19.156,48.5,9,55.774,9.242c16.211.534,31.639,17.837,41.143,12.39Z" transform="translate(432.384 315.197)" stroke="#000" stroke-width="1" fill-rule="evenodd"/>
      </g>
      <text id="_urly_oding" data-name="  urly   oding" transform="translate(408 305)" font-size="24" font-family="CitiesTypeface, Cities Typeface"><tspan x="0" y="0" xml:space="preserve">  urly</tspan></text>
      <text id="_urly_oding" data-name="  urly   oding" transform="translate(482 305)" font-size="24" font-family="CitiesTypeface, Cities Typeface"><tspan x="0" y="0" xml:space="preserve">  oding</tspan></text>
      <path id="Path_1" data-name="Path 1" d="M20.687-1279.883a18.2,18.2,0,0,0-4.355,1.094A22.149,22.149,0,0,0,3.99-1267.3a27.073,27.073,0,0,0-1.316,3.679c-.107.39-.222.771-.248.849-.091.243-.124.1-.1-.442a15.08,15.08,0,0,1,1.824-6.053,22.372,22.372,0,0,1,4.352-5.616c.521-.514.5-.488.267-.329a16.943,16.943,0,0,0-1.407,1.109,16.01,16.01,0,0,0-5.287,10.266,15.738,15.738,0,0,0-.134,2.469,17.05,17.05,0,0,0,.3,3.523,21.7,21.7,0,0,0,.739,3.075c.222.748.238.823.173.823a2.041,2.041,0,0,1-.476-.664,14.827,14.827,0,0,1-1.661-5.183c-.085-.653-.124-1.141-.163-2.091-.02-.436-.039-.8-.046-.8a11.286,11.286,0,0,0-.173,1.146,17.841,17.841,0,0,0,0,2.83,10.41,10.41,0,0,0,1.182,3.884,17.658,17.658,0,0,0,1.88,2.642,27.253,27.253,0,0,0,3.668,4.072,21.294,21.294,0,0,0,2.958,2.2c.818.528,1.1.734,1.062.785s-.342,0-.766-.124a17.639,17.639,0,0,1-1.792-.644c-.681-.274-.821-.32-.893-.3-.218.075,1.339,1.146,2.626,1.808a12.648,12.648,0,0,0,4.43,1.435c.534.029.655-.066.472-.373-.1-.165-.1-.271-.02-.312a1.36,1.36,0,0,1,.56,0,21.06,21.06,0,0,0,4.329.231,27.276,27.276,0,0,0,5.622-.979,7.593,7.593,0,0,1,1.821-.292,2.927,2.927,0,0,0,1.889-.554,13.237,13.237,0,0,0,4.267-4.4,2.161,2.161,0,0,0,.3-.719c-.036-.032-.085.017-.57.589a14.551,14.551,0,0,1-1.521,1.591,11.868,11.868,0,0,1-2.052,1.533,3.5,3.5,0,0,1-.945.433h-.085l.059-.087c.033-.049.375-.37.759-.716s.818-.745.961-.887a12.379,12.379,0,0,0,3.388-5.876,12.889,12.889,0,0,0,.4-2.859c.081-2.478-4.179-3.026-3.74-1.077.121.534.007.453-.388-.271-.6-1.106-.964-1.045-.573-.517a4.993,4.993,0,0,1,.964,3.07,6.331,6.331,0,0,1-2,4.655,1.417,1.417,0,0,1-.485.349c-.059,0-.016-.15.124-.419a10.6,10.6,0,0,0,.824-1.834,4.221,4.221,0,0,0,.248-1.522c0-.488-.007-.56-.055-.6s-.062-.043-.124.084a5.883,5.883,0,0,0-.215.644,8.063,8.063,0,0,1-1.544,2.928c-.228.312-.45.624-.485.687a.319.319,0,0,0,.029.422.407.407,0,0,1,.1.162,1.573,1.573,0,0,1-.5.679,9.558,9.558,0,0,1-3.648,1.932,10.138,10.138,0,0,1-3.153.413,4.771,4.771,0,0,1-1.583-.211c-.235-.1-.13-.179.485-.372.28-.087.463-.185.463-.245s-.2-.141-.749-.245c-.694-.133-2.2-.456-2.655-.569-.189-.046-.651-.173-1.026-.283-.746-.217-.9-.245-.922-.167-.026.113.423.456,1.3.993.606.37.723.462.648.5s-.2.035-.56-.029a10.529,10.529,0,0,1-3.284-1.328,10.646,10.646,0,0,1-3.13-2.948,6.087,6.087,0,0,1-.873-1.981c-.107-.361-.29-.933-.407-1.265-.423-1.2-.645-1.854-.785-2.353a14.356,14.356,0,0,1-.459-2.273c-.036-.393-.111-.4-.173-.012a5.959,5.959,0,0,0-.039,1.3,12.629,12.629,0,0,0,.935,3.924,8.883,8.883,0,0,1,.521,1.383c-.059.052-.368-.3-.7-.8a10.718,10.718,0,0,1-1.72-4.537,13.77,13.77,0,0,1,0-2.642,12.06,12.06,0,0,1,.853-2.989,22.085,22.085,0,0,1,3.564-5.943c.489-.575.456-.534.492-.638.023-.072.02-.09-.023-.09a6.291,6.291,0,0,0-1.645,1.5,14.511,14.511,0,0,0-2.889,5.3,19.527,19.527,0,0,0-.59,2.729,4.233,4.233,0,0,1-.134.65c-.055.049-.088-.037-.124-.329a7.567,7.567,0,0,1-.036-1.5,8.79,8.79,0,0,1,.358-1.981,15.022,15.022,0,0,1,4.736-7.219,22.655,22.655,0,0,1,4.691-3.174c.772-.4,1.293-.644,3.039-1.409.906-.4,1.639-.725,1.629-.734a8.779,8.779,0,0,0-1.261.3,20.883,20.883,0,0,0-9.388,5.917,19.439,19.439,0,0,0-2.326,3.191c-.205.344-.371.632-.371.644,0,.043-.632,1.135-.687,1.187s-.072.046-.1.02a8.679,8.679,0,0,1,.987-2.541c1.968-3.659,5.727-6.714,10.515-8.553a33.837,33.837,0,0,1,8.254-1.912,3.123,3.123,0,0,0,.511-.087,11.256,11.256,0,0,0-1.531.006,23.805,23.805,0,0,0-14.457,6.2,23.372,23.372,0,0,0-3.059,3.5c-.5.682-.668.866-.752.866s-.033-.147.153-.534a15.844,15.844,0,0,1,3.733-4.678,25.626,25.626,0,0,1,13.268-5.848c.782-.115,1.137-.159,1.977-.245l.974-.1c.143-.017.313-.029.384-.029s.124-.012.124-.026a5.105,5.105,0,0,0-.658-.043,23.2,23.2,0,0,0-12.274,3.341,23.781,23.781,0,0,0-8.508,8.591,3.382,3.382,0,0,1-.3.465c-.065.02.007-.361.127-.693a13.344,13.344,0,0,1,1.788-3.13,24.338,24.338,0,0,1,12.395-8.253c.583-.182,1.746-.517,1.932-.557a.219.219,0,0,0,.107-.043c.01-.015.013-.023.007-.023A.571.571,0,0,1,20.687-1279.883Z" transform="translate(-44.431 1467.075) rotate(20)"/>
      <path id="Path_3" data-name="Path 3" d="M20.687-1279.883a18.2,18.2,0,0,0-4.355,1.094A22.149,22.149,0,0,0,3.99-1267.3a27.073,27.073,0,0,0-1.316,3.679c-.107.39-.222.771-.248.849-.091.243-.124.1-.1-.442a15.08,15.08,0,0,1,1.824-6.053,22.372,22.372,0,0,1,4.352-5.616c.521-.514.5-.488.267-.329a16.943,16.943,0,0,0-1.407,1.109,16.01,16.01,0,0,0-5.287,10.266,15.738,15.738,0,0,0-.134,2.469,17.05,17.05,0,0,0,.3,3.523,21.7,21.7,0,0,0,.739,3.075c.222.748.238.823.173.823a2.041,2.041,0,0,1-.476-.664,14.827,14.827,0,0,1-1.661-5.183c-.085-.653-.124-1.141-.163-2.091-.02-.436-.039-.8-.046-.8a11.286,11.286,0,0,0-.173,1.146,17.841,17.841,0,0,0,0,2.83,10.41,10.41,0,0,0,1.182,3.884,17.658,17.658,0,0,0,1.88,2.642,27.253,27.253,0,0,0,3.668,4.072,21.294,21.294,0,0,0,2.958,2.2c.818.528,1.1.734,1.062.785s-.342,0-.766-.124a17.639,17.639,0,0,1-1.792-.644c-.681-.274-.821-.32-.893-.3-.218.075,1.339,1.146,2.626,1.808a12.648,12.648,0,0,0,4.43,1.435c.534.029.655-.066.472-.373-.1-.165-.1-.271-.02-.312a1.36,1.36,0,0,1,.56,0,21.06,21.06,0,0,0,4.329.231,27.276,27.276,0,0,0,5.622-.979,7.593,7.593,0,0,1,1.821-.292,2.927,2.927,0,0,0,1.889-.554,13.237,13.237,0,0,0,4.267-4.4,2.161,2.161,0,0,0,.3-.719c-.036-.032-.085.017-.57.589a14.551,14.551,0,0,1-1.521,1.591,11.868,11.868,0,0,1-2.052,1.533,3.5,3.5,0,0,1-.945.433h-.085l.059-.087c.033-.049.375-.37.759-.716s.818-.745.961-.887a12.379,12.379,0,0,0,3.388-5.876,12.889,12.889,0,0,0,.4-2.859c.081-2.478-4.179-3.026-3.74-1.077.121.534.007.453-.388-.271-.6-1.106-.964-1.045-.573-.517a4.993,4.993,0,0,1,.964,3.07,6.331,6.331,0,0,1-2,4.655,1.417,1.417,0,0,1-.485.349c-.059,0-.016-.15.124-.419a10.6,10.6,0,0,0,.824-1.834,4.221,4.221,0,0,0,.248-1.522c0-.488-.007-.56-.055-.6s-.062-.043-.124.084a5.883,5.883,0,0,0-.215.644,8.063,8.063,0,0,1-1.544,2.928c-.228.312-.45.624-.485.687a.319.319,0,0,0,.029.422.407.407,0,0,1,.1.162,1.573,1.573,0,0,1-.5.679,9.558,9.558,0,0,1-3.648,1.932,10.138,10.138,0,0,1-3.153.413,4.771,4.771,0,0,1-1.583-.211c-.235-.1-.13-.179.485-.372.28-.087.463-.185.463-.245s-.2-.141-.749-.245c-.694-.133-2.2-.456-2.655-.569-.189-.046-.651-.173-1.026-.283-.746-.217-.9-.245-.922-.167-.026.113.423.456,1.3.993.606.37.723.462.648.5s-.2.035-.56-.029a10.529,10.529,0,0,1-3.284-1.328,10.646,10.646,0,0,1-3.13-2.948,6.087,6.087,0,0,1-.873-1.981c-.107-.361-.29-.933-.407-1.265-.423-1.2-.645-1.854-.785-2.353a14.356,14.356,0,0,1-.459-2.273c-.036-.393-.111-.4-.173-.012a5.959,5.959,0,0,0-.039,1.3,12.629,12.629,0,0,0,.935,3.924,8.883,8.883,0,0,1,.521,1.383c-.059.052-.368-.3-.7-.8a10.718,10.718,0,0,1-1.72-4.537,13.77,13.77,0,0,1,0-2.642,12.06,12.06,0,0,1,.853-2.989,22.085,22.085,0,0,1,3.564-5.943c.489-.575.456-.534.492-.638.023-.072.02-.09-.023-.09a6.291,6.291,0,0,0-1.645,1.5,14.511,14.511,0,0,0-2.889,5.3,19.527,19.527,0,0,0-.59,2.729,4.233,4.233,0,0,1-.134.65c-.055.049-.088-.037-.124-.329a7.567,7.567,0,0,1-.036-1.5,8.79,8.79,0,0,1,.358-1.981,15.022,15.022,0,0,1,4.736-7.219,22.655,22.655,0,0,1,4.691-3.174c.772-.4,1.293-.644,3.039-1.409.906-.4,1.639-.725,1.629-.734a8.779,8.779,0,0,0-1.261.3,20.883,20.883,0,0,0-9.388,5.917,19.439,19.439,0,0,0-2.326,3.191c-.205.344-.371.632-.371.644,0,.043-.632,1.135-.687,1.187s-.072.046-.1.02a8.679,8.679,0,0,1,.987-2.541c1.968-3.659,5.727-6.714,10.515-8.553a33.837,33.837,0,0,1,8.254-1.912,3.123,3.123,0,0,0,.511-.087,11.256,11.256,0,0,0-1.531.006,23.805,23.805,0,0,0-14.457,6.2,23.372,23.372,0,0,0-3.059,3.5c-.5.682-.668.866-.752.866s-.033-.147.153-.534a15.844,15.844,0,0,1,3.733-4.678,25.626,25.626,0,0,1,13.268-5.848c.782-.115,1.137-.159,1.977-.245l.974-.1c.143-.017.313-.029.384-.029s.124-.012.124-.026a5.105,5.105,0,0,0-.658-.043,23.2,23.2,0,0,0-12.274,3.341,23.781,23.781,0,0,0-8.508,8.591,3.382,3.382,0,0,1-.3.465c-.065.02.007-.361.127-.693a13.344,13.344,0,0,1,1.788-3.13,24.338,24.338,0,0,1,12.395-8.253c.583-.182,1.746-.517,1.932-.557a.219.219,0,0,0,.107-.043c.01-.015.013-.023.007-.023A.571.571,0,0,1,20.687-1279.883Z" transform="translate(30.569 1469.075) rotate(20)"/>
    </g>
    <text id="think_-_Design_-_code" data-name="think - Design - code" transform="translate(582 145)" font-size="15" font-family="CitiesTypeface, Cities Typeface"><tspan x="0" y="0">Think - Design - code</tspan></text>
  </g>
</svg>
