<?xml version="1.0" encoding="UTF-8"?>
<svg viewBox="0 0 316.25 67.5" xmlns="http://www.w3.org/2000/svg">
 <path d="m297.14 60.357c13.151-7.8905 14.118-13.844 13.571-27.5-0.53572-13.393-9.4643-21.071-21.429-25.714s-25.893-0.89286-32.143 6.7857c-6.3947 7.8564-5.8929 16.071 0.35714 21.786 4.2194 3.8577 9.1072 0 8.9286-3.5714-0.246-4.92-10.357-3.75-2.8572-11.786 5.0781-5.4408 15.536-4.8214 21.071 1.4286s8.5404 17.522 1.0714 23.571c-21.607 17.5-67.143-35.357-122.14-35.714-26.073-0.17041-65.378 36.288-85 40-46.25 8.75-71.607-22.857-72.857-22.143s28.75 34.643 74.286 27.857c22.01-3.2799 62.489-37.229 85.714-36.429 51.786 1.7857 101.07 59.643 131.43 41.429z" fill-rule="evenodd" stroke="#000"/>
</svg>
